<svg fill="none" height="113" viewBox="0 0 89 113" width="89" xmlns="http://www.w3.org/2000/svg"><g clip-rule="evenodd" fill="#000" fill-rule="evenodd"><path d="m84.6197 31.6024c-.345-4.2155-.6493-8.3888-1.117-12.592-.0973-.9046-.905-1.5526-1.8035-1.4531-.9046.0974-1.5549.9112-1.4554 1.8096.4619 4.1803.7648 8.3182 1.1062 12.5045.0766.9043.8694 1.5751 1.7653 1.5025.9042-.0766 1.581-.8673 1.5044-1.7715z"/><path d="m55.839 51.4837c-9.5668-9.3328-19.5992-18.1763-29.3587-27.2989-.6651-.6184-1.7015-.5816-2.3177.0773-.6184.6651-.5877 1.6991.0752 2.3237 9.7453 9.1037 19.7635 17.9281 29.3077 27.2459.6524.6348 1.6883.6189 2.3209-.0272.6348-.6524.6187-1.6882-.0274-2.3208z"/><path d="m36.8201 95.755c-11.1137-2.0351-22.3016-3.7624-33.39225-5.9216-.88726-.168-1.74678.4116-1.92097 1.2967-.17638.8912.40942 1.753 1.29448 1.9272 11.10524 2.1574 22.30554 3.889 33.43384 5.9223.8894.1618 1.7451-.4261 1.9069-1.3156.164-.8956-.4264-1.745-1.322-1.909z"/></g></svg>