<svg fill="none" height="58" viewBox="0 0 55 58" width="55" xmlns="http://www.w3.org/2000/svg"><g clip-rule="evenodd" fill="#000" fill-rule="evenodd"><path d="m38.0006 7.61315c4.378 1.85915 9.0518 3.12155 13.5902 4.31185.9779.253 1.9906-.3072 2.188-1.2582.2686-.94247-.3262-1.91499-1.2331-2.15867-4.3992-1.14984-8.9349-2.35764-13.1062-4.14171-.8883-.38479-1.9541.02628-2.3609.92123-.4066.89425.0337 1.94001.922 2.3255z"/><path d="m21.8733 23.6765c6.3417 8.3422 13.7314 15.856 19.905 24.3775.5458.7919 1.6768.9793 2.4738.4122.7971-.5679 1.0142-1.6707.3974-2.4718-6.1707-8.5433-13.5577-16.0782-19.8964-24.4422-.6191-.7843-1.7535-.9436-2.553-.3575-.7284.5948-.9458 1.6975-.3268 2.4818z"/><path d="m4.43227 50.2561c.34305-4.2516.68651-8.5032 1.02965-12.7556.12737-.9675-.62672-1.8267-1.62693-1.9105-1.00031-.0831-1.81832.647-1.94578 1.6151-.34398 4.2587-.68827 8.5166-1.032149 12.7746-.056366.9768.698089 1.8311 1.699049 1.9093.92995.0689 1.81989-.6568 1.87616-1.6329z"/></g></svg>