<svg fill="none" height="18" viewBox="0 0 104 18" width="104" xmlns="http://www.w3.org/2000/svg"><g fill="#fff"><path d="m29.568 14.16c-.6827 0-1.3333-.1067-1.952-.32s-1.1573-.512-1.616-.896-.7947-.8267-1.008-1.328c-.1067-.224-.1067-.432 0-.624.1173-.192.3093-.3147.576-.368.192-.0427.3787-.0107.56.096.192.096.336.2453.432.448.128.2667.336.512.624.736.2987.224.656.4053 1.072.544s.8533.208 1.312.208c.512 0 .9813-.08 1.408-.24.4373-.16.7893-.3893 1.056-.688.2667-.3093.4-.688.4-1.136 0-.5653-.224-1.072-.672-1.52-.4373-.448-1.1627-.72533-2.176-.832-1.3227-.128-2.3627-.51733-3.12-1.168s-1.136-1.456-1.136-2.416c0-.704.1973-1.30133.592-1.792s.928-.864 1.6-1.12c.6827-.256 1.44-.384 2.272-.384.9707 0 1.7653.19733 2.384.592s1.1307.91733 1.536 1.568c.1493.23467.208.45867.176.672-.0213.20267-.1227.36267-.304.48-.2027.128-.4213.15467-.656.08s-.4107-.21333-.528-.416c-.2667-.45867-.6133-.816-1.04-1.072-.416-.256-.9547-.38933-1.616-.4-.7893-.01067-1.4507.13867-1.984.448-.5333.29867-.8.76267-.8 1.392 0 .32.08.62933.24.928.1707.288.4747.53867.912.752.448.21333 1.088.36267 1.92.448 1.2693.128 2.256.51733 2.96 1.168.7147.64 1.072 1.488 1.072 2.544 0 .608-.128 1.136-.384 1.584-.2453.448-.5813.8267-1.008 1.136-.416.2987-.896.5227-1.44.672-.5333.1493-1.088.224-1.664.224zm10.903-.16c-.2347 0-.432-.08-.592-.24s-.24-.3573-.24-.592v-10.128h-3.456c-.224 0-.4107-.06933-.56-.208-.1387-.14933-.208-.336-.208-.56s.0693-.40533.208-.544c.1493-.14933.336-.224.56-.224h8.56c.224 0 .4053.07467.544.224.1493.13867.224.32.224.544s-.0747.41067-.224.56c-.1387.13867-.32.208-.544.208h-3.44v10.128c0 .2347-.08.432-.24.592s-.3573.24-.592.24zm5.9049 0c-.2987 0-.528-.128-.688-.384s-.176-.528-.048-.816l4.496-10.736c.16-.37333.4213-.56.784-.56.384 0 .6453.18667.784.56l4.512 10.768c.1173.2987.096.5707-.064.816-.1494.2347-.3787.352-.688.352-.16 0-.3147-.0427-.464-.128-.1387-.096-.24-.224-.304-.384l-.896-2.24h-5.744l-.912 2.24c-.0747.1707-.1867.2987-.336.384-.1387.0853-.2827.128-.432.128zm2.24-4.128h4.624l-2.288-5.696zm11.138 4.128c-.2347 0-.432-.08-.592-.24s-.24-.3573-.24-.592v-10.832c0-.24533.08-.44267.24-.592.16-.16.3573-.24.592-.24h2.88c.8 0 1.5093.17067 2.128.512.6186.33067 1.0986.78933 1.44 1.376.352.58667.528 1.26933.528 2.048 0 .768-.192 1.44533-.576 2.032-.384.576-.9067 1.01333-1.568 1.312l2.448 3.936c.192.3093.2186.6027.08.88-.1387.2667-.3787.4-.72.4-.3094 0-.5494-.1333-.72-.4l-2.752-4.416c-.096 0-.192 0-.288 0h-2.048v3.984c0 .2347-.08.432-.24.592-.1494.16-.3467.24-.592.24zm.832-6.352h2.048c.7253 0 1.3226-.20267 1.792-.608.4693-.416.704-.94933.704-1.6 0-.704-.2347-1.28-.704-1.728-.4694-.448-1.0667-.672-1.792-.672h-2.048zm12.9414 6.352c-.2347 0-.432-.08-.592-.24s-.24-.3573-.24-.592v-10.128h-3.456c-.224 0-.4107-.06933-.56-.208-.1387-.14933-.208-.336-.208-.56s.0693-.40533.208-.544c.1493-.14933.336-.224.56-.224h8.56c.224 0 .4053.07467.544.224.1493.13867.224.32.224.544s-.0747.41067-.224.56c-.1387.13867-.32.208-.544.208h-3.44v10.128c0 .2347-.08.432-.24.592s-.3574.24-.592.24zm12.9141.256c-1.024 0-1.9307-.1867-2.72-.56-.7894-.384-1.408-.912-1.856-1.584-.4374-.672-.656-1.44-.656-2.304v-7.472c0-.24533.08-.44267.24-.592.16-.16.3573-.24.592-.24.2453 0 .4426.08.592.24.16.14933.24.34667.24.592v7.472c0 .576.1493 1.088.448 1.536.3093.4373.7306.784 1.264 1.04.544.2453 1.1626.368 1.856.368.672 0 1.264-.1227 1.776-.368.5226-.256.928-.6027 1.216-1.04.2986-.448.448-.96.448-1.536v-7.472c0-.24533.08-.44267.24-.592.16-.16.3573-.24.592-.24.2453 0 .4426.08.592.24.1493.14933.224.34667.224.592v7.472c0 .864-.2187 1.632-.656 2.304-.4267.672-1.024 1.2-1.792 1.584-.768.3733-1.648.56-2.64.56zm9.9156-.256c-.2347 0-.432-.08-.592-.24s-.24-.3573-.24-.592v-10.832c0-.24533.08-.44267.24-.592.16-.16.3573-.24.592-.24h3.2c.8 0 1.509.176 2.128.528s1.099.84267 1.44 1.472c.352.61867.528 1.33333.528 2.144 0 .77867-.176 1.472-.528 2.08-.341.608-.821 1.08267-1.44 1.424s-1.328.512-2.128.512h-2.368v3.504c0 .2347-.08.432-.24.592-.1493.16-.3467.24-.592.24zm.832-5.872h2.368c.725 0 1.323-.22933 1.792-.688.469-.46933.704-1.06667.704-1.792 0-.512-.107-.96-.32-1.344-.213-.39467-.507-.704-.88-.928s-.805-.336-1.296-.336h-2.368z"/><path d="m9.5 0 8.2272 13.5h-16.45444z"/></g></svg>